<svg width="359" height="70" viewBox="0 0 359 70" fill="none" xmlns="http://www.w3.org/2000/svg">
<path fill-rule="evenodd" clip-rule="evenodd" d="M16.7215 0L0.765625 70H13.6333L15.1774 62.7941H31.1333L32.6774 70H45.545L30.1039 0H16.7215ZM22.8979 18.5295L17.2361 49.4118H29.5891L22.8979 18.5295ZM117.089 0H39.8828V12.3529H52.2358V70H66.1328V12.3529H90.8387V70H104.736V12.3529H117.089V0ZM189.147 28.3088H202.014V15.4412C200.985 7.72065 194.809 0 179.882 0C165.053 0 160.495 10.9804 159.809 16.9853V50.9559C160.152 57.8187 164.23 70 179.882 70C195.323 70 201.328 60.5638 202.014 54.5589V41.6912H189.147V50.9559C188.975 53.5295 187.5 58.6765 180.912 58.6765C174.323 58.6765 172.848 52.5 173.191 49.4118V19.5589C173.191 16.9853 175.662 11.8383 181.426 11.8383C187.191 11.8383 188.975 16.2991 189.147 18.0147V28.3088ZM208.191 0V70H222.088V51.4706L226.721 43.75L238.044 70H251.427L233.412 30.8823L249.883 0H235.986L222.088 27.7941V0H208.191ZM255.029 70V0H273.044L284.368 46.8382L295.691 0H325.707C321.953 1.55556 314.342 6.63704 313.932 14.5185C313.523 22.4 313.761 43.7284 313.932 53.4074C313.932 57.2099 316.287 65.8518 325.707 70H299.294L300.838 20.5882L291.059 64.8529H277.162L267.382 21.6176L268.412 70H255.029ZM355.912 18.1481C355.741 13.3086 353.147 2.9037 344.137 0H358.485L359 70H344.137C347.891 67.9259 355.502 62.1185 355.912 55.4815V18.1481ZM327.316 35.0474V18.5768C327.487 16.3464 329.169 11.8856 334.521 11.8856C339.874 11.8856 341.899 16.3464 342.242 18.5768V48.9445C342.07 52.0327 340.286 58.2092 334.521 58.2092C328.757 58.2092 327.316 52.0327 327.316 48.9445V35.0474ZM111.941 70L127.897 0H141.28L156.721 70H143.853L142.309 62.7941H126.353L124.809 70H111.941ZM128.412 49.4118L134.074 18.5295L140.765 49.4118H128.412Z" fill="#B91646"/>
</svg>
