<svg width="21" height="22" viewBox="0 0 21 22" fill="none" xmlns="http://www.w3.org/2000/svg">
<path d="M20.8496 19.1562H12.8496C12.8496 19.7063 12.6538 20.1771 12.2621 20.5688C11.8704 20.9604 11.3996 21.1562 10.8496 21.1562H2.84961C2.29961 21.1562 1.82878 20.9604 1.43711 20.5688C1.04544 20.1771 0.849609 19.7063 0.849609 19.1562V4.15625C0.849609 3.60625 1.04544 3.13542 1.43711 2.74375C1.82878 2.35208 2.29961 2.15625 2.84961 2.15625H3.84961V1.15625C3.84961 0.872917 3.94544 0.635417 4.13711 0.44375C4.32878 0.252083 4.56628 0.15625 4.84961 0.15625H8.84961C9.13294 0.15625 9.37044 0.252083 9.56211 0.44375C9.75378 0.635417 9.84961 0.872917 9.84961 1.15625V2.15625H10.8496C11.3996 2.15625 11.8704 2.35208 12.2621 2.74375C12.6538 3.13542 12.8496 3.60625 12.8496 4.15625H20.8496V19.1562ZM18.8496 17.1562V6.15625H10.8496V4.15625H7.84961V2.15625H5.84961V4.15625H2.84961V19.1562H10.8496V17.1562H18.8496ZM7.84961 16.1562H9.84961V14.1562H7.84961V16.1562ZM7.84961 9.15625H9.84961V7.15625H7.84961V9.15625ZM11.8496 16.1562H13.8496V14.1562H11.8496V16.1562ZM11.8496 9.15625H13.8496V7.15625H11.8496V9.15625ZM15.8496 16.1562H17.8496V14.1562H15.8496V16.1562ZM15.8496 9.15625H17.8496V7.15625H15.8496V9.15625Z" fill="#1C1B1F"/>
</svg>
