<svg width="11" height="21" viewBox="0 0 11 21" fill="none" xmlns="http://www.w3.org/2000/svg">
<path d="M1.1 21C0.788333 21 0.527083 20.8994 0.31625 20.6981C0.105417 20.4969 0 20.2475 0 19.95V3.15C0 2.8525 0.105417 2.60313 0.31625 2.40188C0.527083 2.20063 0.788333 2.1 1.1 2.1H3.3V0H7.7V2.1H9.9C10.2117 2.1 10.4729 2.20063 10.6838 2.40188C10.8946 2.60313 11 2.8525 11 3.15V19.95C11 20.2475 10.8946 20.4969 10.6838 20.6981C10.4729 20.8994 10.2117 21 9.9 21H1.1ZM2.2 18.9H8.8V4.2H2.2V18.9Z" fill="#1C1B1F"/>
</svg>
