<svg width="300" height="60" viewBox="0 0 300 60" fill="none" xmlns="http://www.w3.org/2000/svg">
<path fill-rule="evenodd" clip-rule="evenodd" d="M165.259 24.3983H176.034V13.6225C175.172 7.15697 170 0.691406 157.5 0.691406C145.081 0.691406 141.264 9.88684 140.69 14.9156V43.3639C140.977 49.111 144.392 59.3121 157.5 59.3121C170.431 59.3121 175.46 51.4098 176.034 46.3811V35.6052H165.259V43.3639C165.115 45.519 163.879 49.8294 158.362 49.8294C152.845 49.8294 151.609 44.657 151.897 42.0708V17.0708C151.897 14.9156 153.966 10.6052 158.793 10.6052C163.621 10.6052 165.115 14.3409 165.259 15.7777V24.3983ZM37.8448 0.691414H102.5V11.0362H92.1552V59.3121H80.5172V11.0362H59.8276V59.3121H48.1897V11.0362H37.8448V0.691414ZM0 59.3121L13.3621 0.69143H24.569L37.5 59.3121H26.7241L25.431 53.2776H12.069L10.7759 59.3121H0ZM13.793 42.0708L18.5344 16.2087L24.1378 42.0708H13.793ZM116.207 0.691414L102.845 59.3121H113.621L114.914 53.2776H128.276L129.569 59.3121H140.345L127.414 0.691414H116.207ZM121.379 16.2087L116.638 42.0707H126.983L121.379 16.2087ZM176.379 59.3121V0.691414H188.017V23.9673L199.655 0.691414H211.293L197.5 26.5535L212.586 59.3121H201.379L191.897 37.3293L188.017 43.7949V59.3121H176.379ZM212.931 59.3121V0.691406H228.017L237.5 39.9155L246.983 0.691406H272.119C268.975 1.99409 262.601 6.24952 262.258 12.8498C261.915 19.45 262.115 37.3112 262.258 45.4168C262.258 48.6012 264.23 55.8383 272.119 59.3121H250L251.293 17.9328L243.103 55.0018H231.466L223.276 18.7949L224.138 59.3121H212.931ZM297.414 15.8894C297.271 11.8366 295.099 3.12308 287.553 0.691406H299.569L300 59.3121H287.553C290.697 57.5752 297.071 52.7118 297.414 47.1537V15.8894ZM273.466 30.0414V16.2483C273.61 14.3804 275.018 10.6448 279.501 10.6448C283.984 10.6448 285.679 14.3804 285.966 16.2483V41.6793C285.823 44.2655 284.328 49.4379 279.501 49.4379C274.673 49.4379 273.466 44.2655 273.466 41.6793V30.0414Z" fill="#B3B3B3"/>
</svg>
