<svg width="46" height="38" viewBox="0 0 46 38" fill="none" xmlns="http://www.w3.org/2000/svg">
<path fill-rule="evenodd" clip-rule="evenodd" d="M0 35.8889C0 35.329 0.220292 34.792 0.612413 34.3961C1.00453 34.0002 1.53637 33.7778 2.09091 33.7778H43.9091C44.4636 33.7778 44.9955 34.0002 45.3876 34.3961C45.7797 34.792 46 35.329 46 35.8889C46 36.4488 45.7797 36.9858 45.3876 37.3817C44.9955 37.7776 44.4636 38 43.9091 38H2.09091C1.53637 38 1.00453 37.7776 0.612413 37.3817C0.220292 36.9858 0 36.4488 0 35.8889ZM0 19C0 18.4401 0.220292 17.9031 0.612413 17.5072C1.00453 17.1113 1.53637 16.8889 2.09091 16.8889H43.9091C44.4636 16.8889 44.9955 17.1113 45.3876 17.5072C45.7797 17.9031 46 18.4401 46 19C46 19.5599 45.7797 20.0969 45.3876 20.4928C44.9955 20.8887 44.4636 21.1111 43.9091 21.1111H2.09091C1.53637 21.1111 1.00453 20.8887 0.612413 20.4928C0.220292 20.0969 0 19.5599 0 19ZM0 2.11111C0 1.55121 0.220292 1.01424 0.612413 0.618331C1.00453 0.22242 1.53637 0 2.09091 0H43.9091C44.4636 0 44.9955 0.22242 45.3876 0.618331C45.7797 1.01424 46 1.55121 46 2.11111C46 2.67101 45.7797 3.20798 45.3876 3.60389C44.9955 3.9998 44.4636 4.22222 43.9091 4.22222H2.09091C1.53637 4.22222 1.00453 3.9998 0.612413 3.60389C0.220292 3.20798 0 2.67101 0 2.11111Z" fill="black"/>
</svg>
