<svg width="40" height="41" viewBox="0 0 40 41" fill="none" xmlns="http://www.w3.org/2000/svg">
<path fill-rule="evenodd" clip-rule="evenodd" d="M5.85786 6.26668C2.10714 10.0174 0 15.1045 0 20.4088C0 25.7131 2.10714 30.8002 5.85786 34.5509C9.60859 38.3017 14.6957 40.4088 20 40.4088C25.3043 40.4088 30.3914 38.3017 34.1421 34.5509C37.8929 30.8002 40 25.7131 40 20.4088C40 15.1045 37.8929 10.0174 34.1421 6.26668C30.3914 2.51595 25.3043 0.408813 20 0.408813C14.6957 0.408813 9.60859 2.51595 5.85786 6.26668ZM10.686 5.59388C13.4759 3.83972 16.7044 2.90899 20 2.90881C23.2956 2.90899 26.5241 3.83972 29.314 5.59388C32.1039 7.34805 34.3418 9.85434 35.7701 12.8243C37.1984 15.7943 37.759 19.1072 37.3875 22.3817C37.016 25.6563 35.7274 28.7593 33.67 31.3338C31.8925 28.4713 27.9875 25.4088 20 25.4088C12.0125 25.4088 8.105 28.4738 6.33 31.3338C4.27263 28.7593 2.98403 25.6563 2.6125 22.3817C2.24097 19.1072 2.80161 15.7943 4.22991 12.8243C5.65821 9.85434 7.8961 7.34805 10.686 5.59388ZM25.3033 20.7121C26.7098 19.3056 27.5 17.3979 27.5 15.4088C27.5 13.4197 26.7098 11.512 25.3033 10.1055C23.8968 8.69899 21.9891 7.90881 20 7.90881C18.0109 7.90881 16.1032 8.69899 14.6967 10.1055C13.2902 11.512 12.5 13.4197 12.5 15.4088C12.5 17.3979 13.2902 19.3056 14.6967 20.7121C16.1032 22.1186 18.0109 22.9088 20 22.9088C21.9891 22.9088 23.8968 22.1186 25.3033 20.7121Z" fill="black"/>
</svg>
