<svg width="21" height="20" viewBox="0 0 21 20" fill="none" xmlns="http://www.w3.org/2000/svg">
<path d="M0.5 1.25C0.5 0.918479 0.631696 0.600537 0.866117 0.366117C1.10054 0.131696 1.41848 0 1.75 0L19.25 0C19.5815 0 19.8995 0.131696 20.1339 0.366117C20.3683 0.600537 20.5 0.918479 20.5 1.25V18.75C20.5 19.0815 20.3683 19.3995 20.1339 19.6339C19.8995 19.8683 19.5815 20 19.25 20H1.75C1.41848 20 1.10054 19.8683 0.866117 19.6339C0.631696 19.3995 0.5 19.0815 0.5 18.75V1.25ZM5.5 1.25V8.75H15.5V1.25H5.5ZM15.5 11.25H5.5V18.75H15.5V11.25ZM1.75 1.25V3.75H4.25V1.25H1.75ZM4.25 5H1.75V7.5H4.25V5ZM1.75 8.75V11.25H4.25V8.75H1.75ZM4.25 12.5H1.75V15H4.25V12.5ZM1.75 16.25V18.75H4.25V16.25H1.75ZM19.25 1.25H16.75V3.75H19.25V1.25ZM16.75 5V7.5H19.25V5H16.75ZM19.25 8.75H16.75V11.25H19.25V8.75ZM16.75 12.5V15H19.25V12.5H16.75ZM19.25 16.25H16.75V18.75H19.25V16.25Z" fill="#303030"/>
</svg>
