<svg width="37" height="36" viewBox="0 0 37 36" fill="none" xmlns="http://www.w3.org/2000/svg">
<path d="M22.5 35.8398V31.7398C25.5 30.8732 27.9167 29.2065 29.75 26.7398C31.5833 24.2732 32.5 21.4732 32.5 18.3398C32.5 15.2065 31.5833 12.4065 29.75 9.93984C27.9167 7.47318 25.5 5.80651 22.5 4.93984V0.839844C26.6333 1.77318 30 3.86484 32.6 7.11484C35.2 10.3648 36.5 14.1065 36.5 18.3398C36.5 22.5732 35.2 26.3148 32.6 29.5648C30 32.8148 26.6333 34.9065 22.5 35.8398ZM0.5 24.3898V12.3898H8.5L18.5 2.38984V34.3898L8.5 24.3898H0.5ZM22.5 26.3898V10.2898C24.0667 11.0232 25.2917 12.1232 26.175 13.5898C27.0583 15.0565 27.5 16.6565 27.5 18.3898C27.5 20.0898 27.0583 21.6648 26.175 23.1148C25.2917 24.5648 24.0667 25.6565 22.5 26.3898ZM14.5 12.0898L10.2 16.3898H4.5V20.3898H10.2L14.5 24.6898V12.0898Z" fill="white"/>
</svg>
