<svg width="64" height="64" viewBox="0 0 64 64" fill="none" xmlns="http://www.w3.org/2000/svg">
<circle cx="32" cy="32" r="32" fill="#7A7979"/>
<path fill-rule="evenodd" clip-rule="evenodd" d="M18.9392 43.5643C19.0785 43.704 19.244 43.8149 19.4263 43.8905C19.6085 43.9661 19.8039 44.005 20.0012 44.005C20.1985 44.005 20.3938 43.9661 20.5761 43.8905C20.7583 43.8149 20.9238 43.704 21.0632 43.5643L32.0012 32.6233L42.9392 43.5643C43.2208 43.846 43.6028 44.0042 44.0012 44.0042C44.3995 44.0042 44.7815 43.846 45.0632 43.5643C45.3448 43.2827 45.5031 42.9007 45.5031 42.5023C45.5031 42.104 45.3448 41.722 45.0632 41.4403L33.0632 29.4403C32.9238 29.3007 32.7583 29.1898 32.5761 29.1142C32.3938 29.0386 32.1985 28.9997 32.0012 28.9997C31.8039 28.9997 31.6085 29.0386 31.4263 29.1142C31.244 29.1898 31.0785 29.3007 30.9392 29.4403L18.9392 41.4403C18.7995 41.5797 18.6887 41.7452 18.613 41.9274C18.5374 42.1097 18.4985 42.305 18.4985 42.5023C18.4985 42.6996 18.5374 42.895 18.613 43.0772C18.6887 43.2595 18.7995 43.425 18.9392 43.5643ZM15.2012 23.6023C15.2012 24.2623 15.7412 24.8023 16.4012 24.8023H47.6012C47.9194 24.8023 48.2247 24.6759 48.4497 24.4509C48.6747 24.2258 48.8012 23.9206 48.8012 23.6023C48.8012 23.2841 48.6747 22.9789 48.4497 22.7538C48.2247 22.5288 47.9194 22.4023 47.6012 22.4023H16.4012C16.0829 22.4023 15.7777 22.5288 15.5526 22.7538C15.3276 22.9789 15.2012 23.2841 15.2012 23.6023Z" fill="white"/>
</svg>
