<svg width="36" height="36" viewBox="0 0 36 36" fill="none" xmlns="http://www.w3.org/2000/svg">
<path d="M33.4545 36L27.9545 30.5C27.197 30.9848 26.3939 31.4015 25.5455 31.75C24.697 32.0985 23.8182 32.3788 22.9091 32.5909V28.8636C23.3333 28.7121 23.75 28.5606 24.1591 28.4091C24.5682 28.2576 24.9545 28.0758 25.3182 27.8636L19.2727 21.8182V31.2727L10.1818 22.1818H2.90909V11.2727H8.72727L0 2.54545L2.54545 0L36 33.4545L33.4545 36ZM33.0909 25.4545L30.4545 22.8182C30.9697 21.8788 31.3561 20.8939 31.6136 19.8636C31.8712 18.8333 32 17.7727 32 16.6818C32 13.8333 31.1667 11.2879 29.5 9.04545C27.8333 6.80303 25.6364 5.28788 22.9091 4.5V0.772727C26.6667 1.62121 29.7273 3.52273 32.0909 6.47727C34.4545 9.43182 35.6364 12.8333 35.6364 16.6818C35.6364 18.2879 35.4167 19.8333 34.9773 21.3182C34.5379 22.803 33.9091 24.1818 33.0909 25.4545ZM27 19.3636L22.9091 15.2727V9.36364C24.3333 10.0303 25.447 11.0303 26.25 12.3636C27.053 13.697 27.4545 15.1515 27.4545 16.7273C27.4545 17.1818 27.4167 17.6288 27.3409 18.0682C27.2652 18.5076 27.1515 18.9394 27 19.3636ZM19.2727 11.6364L14.5455 6.90909L19.2727 2.18182V11.6364ZM15.6364 22.4545V18.1818L12.3636 14.9091H6.54545V18.5455H11.7273L15.6364 22.4545Z" fill="white"/>
</svg>
