<svg width="18" height="22" viewBox="0 0 18 22" fill="none" xmlns="http://www.w3.org/2000/svg">
<path d="M0 2.75C0 2.02065 0.302901 1.32118 0.842068 0.805456C1.38123 0.289731 2.1125 0 2.875 0L14.375 0C15.1375 0 15.8688 0.289731 16.4079 0.805456C16.9471 1.32118 17.25 2.02065 17.25 2.75V21.3125C17.2499 21.4369 17.2146 21.5589 17.1478 21.6655C17.0809 21.7722 16.9851 21.8595 16.8705 21.9182C16.7559 21.9769 16.6268 22.0048 16.4969 21.9989C16.367 21.9929 16.2413 21.9534 16.1331 21.8845L8.625 18.0139L1.11694 21.8845C1.0087 21.9534 0.882956 21.9929 0.753094 21.9989C0.623232 22.0048 0.494116 21.9769 0.379499 21.9182C0.264882 21.8595 0.169056 21.7722 0.102226 21.6655C0.035397 21.5589 6.71606e-05 21.4369 0 21.3125V2.75Z" fill="#105652"/>
</svg>
