<svg width="19" height="22" viewBox="0 0 19 22" fill="none" xmlns="http://www.w3.org/2000/svg">
<path d="M0.875 2.75C0.875 2.02065 1.1779 1.32118 1.71707 0.805456C2.25623 0.289731 2.9875 0 3.75 0L15.25 0C16.0125 0 16.7438 0.289731 17.2829 0.805456C17.8221 1.32118 18.125 2.02065 18.125 2.75V21.3125C18.1249 21.4369 18.0896 21.5589 18.0228 21.6655C17.9559 21.7722 17.8601 21.8595 17.7455 21.9182C17.6309 21.9769 17.5018 22.0048 17.3719 21.9989C17.242 21.9929 17.1163 21.9534 17.0081 21.8845L9.5 18.0139L1.99194 21.8845C1.8837 21.9534 1.75796 21.9929 1.62809 21.9989C1.49823 22.0048 1.36912 21.9769 1.2545 21.9182C1.13988 21.8595 1.04406 21.7722 0.977226 21.6655C0.910397 21.5589 0.875067 21.4369 0.875 21.3125V2.75ZM3.75 1.375C3.36875 1.375 3.00312 1.51987 2.73353 1.77773C2.46395 2.03559 2.3125 2.38533 2.3125 2.75V20.0282L9.10181 16.6155C9.21977 16.5404 9.35831 16.5004 9.5 16.5004C9.64169 16.5004 9.78023 16.5404 9.89819 16.6155L16.6875 20.0282V2.75C16.6875 2.38533 16.536 2.03559 16.2665 1.77773C15.9969 1.51987 15.6312 1.375 15.25 1.375H3.75Z" fill="black"/>
</svg>
