<svg width="74" height="74" viewBox="0 0 74 74" fill="none" xmlns="http://www.w3.org/2000/svg">
<path d="M8.15833 60.5266C5.59167 57.3488 3.59028 53.7891 2.15417 49.8474C0.718056 45.9057 0 41.7349 0 37.3349C0 27.7404 3.1625 19.4905 9.4875 12.5849C15.8125 5.67934 23.65 1.76823 33 0.851562V8.1849C25.6667 9.04045 19.5556 12.2182 14.6667 17.7182C9.77778 23.2182 7.33333 29.7571 7.33333 37.3349C7.33333 40.7571 7.85278 43.9807 8.89167 47.0057C9.93056 50.0307 11.4278 52.796 13.3833 55.3016L8.15833 60.5266ZM36.6667 74.0016C32.2056 74.0016 27.9889 73.2682 24.0167 71.8016C20.0444 70.3349 16.4694 68.2877 13.2917 65.6599L18.425 60.4349C20.9306 62.3904 23.7264 63.9182 26.8125 65.0182C29.8986 66.1182 33.1833 66.6682 36.6667 66.6682C40.15 66.6682 43.4347 66.1182 46.5208 65.0182C49.6069 63.9182 52.4028 62.3904 54.9083 60.4349L60.0417 65.6599C56.8639 68.2877 53.2889 70.3349 49.3167 71.8016C45.3444 73.2682 41.1278 74.0016 36.6667 74.0016ZM65.175 60.5266L59.95 55.3016C61.9056 52.796 63.4028 50.0307 64.4417 47.0057C65.4806 43.9807 66 40.7571 66 37.3349C66 29.7571 63.5556 23.2182 58.6667 17.7182C53.7778 12.2182 47.6667 9.04045 40.3333 8.1849V0.851562C49.6833 1.76823 57.5208 5.67934 63.8458 12.5849C70.1708 19.4905 73.3333 27.7404 73.3333 37.3349C73.3333 41.7349 72.6153 45.9057 71.1792 49.8474C69.7431 53.7891 67.7417 57.3488 65.175 60.5266ZM27.5 53.8349V20.8349L53.1667 37.3349L27.5 53.8349Z" fill="white"/>
</svg>
